<svg width="20" height="20" viewBox="0 0 20 20" fill="none" xmlns="http://www.w3.org/2000/svg">
<g clip-path="url(#clip0_1_1131)">
<path d="M19.375 16.8754H10.625C10.28 16.8754 10 16.5954 10 16.2504C10 15.9054 10 4.09543 10 3.75043C10 3.40543 10.28 3.12543 10.625 3.12543H19.375C19.72 3.12543 20 3.40543 20 3.75043V16.2504C20 16.5954 19.72 16.8754 19.375 16.8754Z" fill="#ECEFF1"/>
<path d="M13.125 6.87543H10.625C10.28 6.87543 10 6.59543 10 6.25043C10 5.90543 10.28 5.62543 10.625 5.62543H13.125C13.47 5.62543 13.75 5.90543 13.75 6.25043C13.75 6.59543 13.47 6.87543 13.125 6.87543Z" fill="#388E3C"/>
<path d="M13.125 9.37543H10.625C10.28 9.37543 10 9.09543 10 8.75043C10 8.40543 10.28 8.12543 10.625 8.12543H13.125C13.47 8.12543 13.75 8.40543 13.75 8.75043C13.75 9.09543 13.47 9.37543 13.125 9.37543Z" fill="#388E3C"/>
<path d="M13.125 11.8754H10.625C10.28 11.8754 10 11.5954 10 11.2504C10 10.9054 10.28 10.6254 10.625 10.6254H13.125C13.47 10.6254 13.75 10.9054 13.75 11.2504C13.75 11.5954 13.47 11.8754 13.125 11.8754Z" fill="#388E3C"/>
<path d="M13.125 14.3754H10.625C10.28 14.3754 10 14.0954 10 13.7504C10 13.4054 10.28 13.1254 10.625 13.1254H13.125C13.47 13.1254 13.75 13.4054 13.75 13.7504C13.75 14.0954 13.47 14.3754 13.125 14.3754Z" fill="#388E3C"/>
<path d="M16.875 6.87543H15.625C15.28 6.87543 15 6.59543 15 6.25043C15 5.90543 15.28 5.62543 15.625 5.62543H16.875C17.22 5.62543 17.5 5.90543 17.5 6.25043C17.5 6.59543 17.22 6.87543 16.875 6.87543Z" fill="#388E3C"/>
<path d="M16.875 9.37543H15.625C15.28 9.37543 15 9.09543 15 8.75043C15 8.40543 15.28 8.12543 15.625 8.12543H16.875C17.22 8.12543 17.5 8.40543 17.5 8.75043C17.5 9.09543 17.22 9.37543 16.875 9.37543Z" fill="#388E3C"/>
<path d="M16.875 11.8754H15.625C15.28 11.8754 15 11.5954 15 11.2504C15 10.9054 15.28 10.6254 15.625 10.6254H16.875C17.22 10.6254 17.5 10.9054 17.5 11.2504C17.5 11.5954 17.22 11.8754 16.875 11.8754Z" fill="#388E3C"/>
<path d="M16.875 14.3754H15.625C15.28 14.3754 15 14.0954 15 13.7504C15 13.4054 15.28 13.1254 15.625 13.1254H16.875C17.22 13.1254 17.5 13.4054 17.5 13.7504C17.5 14.0954 17.22 14.3754 16.875 14.3754Z" fill="#388E3C"/>
<path d="M11.0238 0.76918C10.8813 0.65043 10.69 0.59918 10.51 0.63668L0.51 2.51168C0.21375 2.56668 0 2.82418 0 3.12543V16.8754C0 17.1754 0.21375 17.4342 0.51 17.4892L10.51 19.3642C10.5475 19.3717 10.5863 19.3754 10.625 19.3754C10.77 19.3754 10.9113 19.3254 11.0238 19.2317C11.1675 19.1129 11.25 18.9354 11.25 18.7504V1.25043C11.25 1.06418 11.1675 0.88793 11.0238 0.76918Z" fill="#2E7D32"/>
<path d="M8.59503 12.0892L6.61878 9.83043L8.61753 7.26043C8.83003 6.98793 8.78003 6.59543 8.50878 6.38293C8.23753 6.17043 7.84503 6.22043 7.63128 6.49168L5.78003 8.87168L4.22003 7.08918C3.99128 6.82668 3.59628 6.80293 3.33878 7.03043C3.07878 7.25793 3.05253 7.65293 3.28003 7.91168L4.99878 9.87668L3.25628 12.1167C3.04378 12.3892 3.09378 12.7817 3.36503 12.9942C3.48003 13.0829 3.61628 13.1254 3.75003 13.1254C3.93628 13.1254 4.12003 13.0429 4.24378 12.8842L5.83753 10.8342L7.65503 12.9104C7.77878 13.0529 7.95128 13.1254 8.12503 13.1254C8.27128 13.1254 8.41753 13.0742 8.53628 12.9704C8.79628 12.7429 8.82253 12.3479 8.59503 12.0892Z" fill="#FAFAFA"/>
</g>
<defs>
<clipPath id="clip0_1_1131">
<rect width="20" height="20" fill="white"/>
</clipPath>
</defs>
</svg>
