<svg width="18" height="18" viewBox="0 0 18 18" fill="none" xmlns="http://www.w3.org/2000/svg">
<path fill-rule="evenodd" clip-rule="evenodd" d="M4.61248 0H10.6305L15.7309 5.31635V15.6567C15.7309 16.952 14.6829 18 13.3921 18H4.61248C3.31714 18 2.26917 16.952 2.26917 15.6567V2.34332C2.26914 1.04797 3.31711 0 4.61248 0V0Z" fill="#E5252A"/>
<path opacity="0.302" fill-rule="evenodd" clip-rule="evenodd" d="M10.626 0V5.27586H15.7309L10.626 0Z" fill="white"/>
<path d="M4.87329 13.4303V10.1424H6.2721C6.61843 10.1424 6.8928 10.2369 7.09969 10.4303C7.30658 10.6192 7.41004 10.8756 7.41004 11.1949C7.41004 11.5142 7.30658 11.7706 7.09969 11.9595C6.8928 12.1529 6.61843 12.2474 6.2721 12.2474H5.71437V13.4303H4.87329ZM5.71437 11.5322H6.17764C6.30357 11.5322 6.40253 11.5053 6.47001 11.4423C6.53746 11.3838 6.57346 11.3029 6.57346 11.1949C6.57346 11.087 6.53748 11.006 6.47001 10.9475C6.40255 10.8846 6.3036 10.8576 6.17764 10.8576H5.71437V11.5322ZM7.75635 13.4303V10.1424H8.92126C9.15065 10.1424 9.36655 10.1739 9.56894 10.2414C9.77133 10.3088 9.95575 10.4033 10.1177 10.5337C10.2796 10.6597 10.41 10.8306 10.5045 11.0465C10.5944 11.2624 10.6439 11.5098 10.6439 11.7886C10.6439 12.063 10.5944 12.3104 10.5045 12.5262C10.41 12.7421 10.2796 12.913 10.1177 13.039C9.95573 13.1694 9.77133 13.2639 9.56894 13.3313C9.36655 13.3988 9.15065 13.4303 8.92126 13.4303H7.75635ZM8.57944 12.7152H8.82231C8.95274 12.7152 9.07419 12.7017 9.18663 12.6702C9.29457 12.6387 9.39802 12.5892 9.49698 12.5217C9.59143 12.4543 9.66789 12.3598 9.72186 12.2339C9.77583 12.108 9.80283 11.9595 9.80283 11.7886C9.80283 11.6132 9.77583 11.4648 9.72186 11.3388C9.66789 11.2129 9.59143 11.1185 9.49698 11.051C9.39802 10.9835 9.29459 10.934 9.18663 10.9026C9.07419 10.8711 8.95274 10.8576 8.82231 10.8576H8.57944V12.7152ZM11.0667 13.4303V10.1424H13.4055V10.8576H11.9078V11.3838H13.1042V12.0945H11.9078V13.4303H11.0667Z" fill="white"/>
</svg>
