<svg width="32" height="32" viewBox="0 0 32 32" fill="none" xmlns="http://www.w3.org/2000/svg">
<path d="M10.9356 6.24639C10.9356 4.45346 12.3891 3 14.182 3H17.7891C19.5821 3 21.0355 4.45346 21.0355 6.24639V8.80022H25.7248C27.5177 8.80022 28.9711 10.2537 28.9711 12.0466V27.9179C28.9711 28.5155 28.4867 29 27.889 29H4.08213C3.48449 29 3 28.5155 3 27.9179V16.3751C3 14.5822 4.45346 13.1287 6.24639 13.1287H10.9356V6.24639ZM13.0999 26.8357H18.8713V6.24639C18.8713 5.64875 18.3868 5.16426 17.7891 5.16426H14.182C13.5844 5.16426 13.0999 5.64875 13.0999 6.24639V26.8357ZM10.9356 15.293H6.24639C5.64875 15.293 5.16426 15.7775 5.16426 16.3751V26.8357H10.9356V15.293ZM21.0355 26.8357H26.8069V12.0466C26.8069 11.449 26.3224 10.9645 25.7248 10.9645H21.0355V26.8357Z" fill="#212121"/>
</svg>
