<svg width="20" height="20" viewBox="0 0 20 20" fill="none" xmlns="http://www.w3.org/2000/svg">
<g clip-path="url(#clip0_1_1145)">
<path d="M19.375 3.12485H10.625C10.28 3.12485 10 3.4036 10 3.74985C10 4.0961 10 15.9048 10 16.2498C10 16.5948 10.28 16.8748 10.625 16.8748H19.375C19.72 16.8748 20 16.5948 20 16.2498V3.74985C20 3.4036 19.72 3.12485 19.375 3.12485Z" fill="#ECEFF1"/>
<path d="M16.875 13.1248H10.625C10.28 13.1248 10 13.4036 10 13.7498C10 14.0961 10.28 14.3748 10.625 14.3748H16.875C17.22 14.3748 17.5 14.0948 17.5 13.7498C17.5 13.4048 17.22 13.1248 16.875 13.1248Z" fill="#1976D2"/>
<path d="M16.875 10.6248H10.625C10.28 10.6248 10 10.9036 10 11.2498C10 11.5961 10.28 11.8748 10.625 11.8748H16.875C17.22 11.8748 17.5 11.5948 17.5 11.2498C17.5 10.9048 17.22 10.6248 16.875 10.6248Z" fill="#1976D2"/>
<path d="M16.875 8.12485H10.625C10.28 8.12485 10 8.4036 10 8.74985C10 9.0961 10.28 9.37485 10.625 9.37485H16.875C17.22 9.37485 17.5 9.09485 17.5 8.74985C17.5 8.40485 17.22 8.12485 16.875 8.12485Z" fill="#1976D2"/>
<path d="M16.875 5.62485H10.625C10.28 5.62485 10 5.9036 10 6.24985C10 6.5961 10.28 6.87485 10.625 6.87485H16.875C17.22 6.87485 17.5 6.59485 17.5 6.24985C17.5 5.90485 17.22 5.62485 16.875 5.62485Z" fill="#1976D2"/>
<path d="M11.0238 19.2299C10.8813 19.3499 10.69 19.3999 10.51 19.3636L0.51 17.4886C0.215 17.4336 0 17.1749 0 16.8749V3.12485C0 2.82485 0.21375 2.5661 0.51 2.5111L10.51 0.636099C10.5487 0.628599 10.5863 0.624849 10.625 0.624849C10.77 0.624849 10.9113 0.674848 11.0238 0.768598C11.1675 0.887348 11.25 1.0636 11.25 1.24985V18.7499C11.25 18.9361 11.1675 19.1111 11.0238 19.2299Z" fill="#1565C0"/>
<path d="M8.12122 6.80485C8.08872 6.5186 7.86372 6.28985 7.57747 6.25485C7.55122 6.2511 7.52622 6.24985 7.49997 6.24985C7.24247 6.24985 7.00747 6.40985 6.91497 6.65485L5.62497 10.0948L4.33497 6.65485C4.23497 6.38735 3.97247 6.2236 3.68247 6.2536C3.39872 6.2836 3.17122 6.5036 3.13122 6.78735L2.50622 11.1623C2.45747 11.5023 2.69497 11.8198 3.03622 11.8686C3.37872 11.9186 3.69497 11.6798 3.74372 11.3386L4.02247 9.3836L5.03872 12.0948C5.22122 12.5823 6.02622 12.5823 6.20997 12.0948L7.16747 9.54234L7.50372 12.5698C7.54247 12.9123 7.85997 13.1586 8.19372 13.1223C8.53747 13.0823 8.78372 12.7736 8.74622 12.4311L8.12122 6.80485Z" fill="#FAFAFA"/>
</g>
<defs>
<clipPath id="clip0_1_1145">
<rect width="20" height="20" fill="white" transform="matrix(1 0 0 -1 0 20)"/>
</clipPath>
</defs>
</svg>
